<?xml version="1.0" encoding="UTF-8"?>
<svg version="1.1" xmlns="http://www.w3.org/2000/svg" width="41" height="41">
<path d="M0 0 C13.53 0 27.06 0 41 0 C41 13.53 41 27.06 41 41 C27.47 41 13.94 41 0 41 C0 27.47 0 13.94 0 0 Z " fill="#CB39BB" transform="translate(0,0)"/>
<path d="M0 0 C0.99 0 1.98 0 3 0 C3.99 3.3 4.98 6.6 6 10 C7.11375 10.0825 8.2275 10.165 9.375 10.25 C13 11 13 11 14.4375 13.0625 C14.623125 13.701875 14.80875 14.34125 15 15 C8.375 17.875 8.375 17.875 5 19 C4.9175 20.11375 4.835 21.2275 4.75 22.375 C4 26 4 26 1.9375 27.4375 C1.298125 27.623125 0.65875 27.80875 0 28 C-2.29633824 24.55549263 -2.54016485 22.06187717 -3 18 C-4.27875 17.9175 -5.5575 17.835 -6.875 17.75 C-9.0859375 17.48828125 -9.0859375 17.48828125 -11 17 C-12.5 14.9375 -12.5 14.9375 -13 13 C-9.99382731 9.99382731 -7.17618402 10.40414684 -3 10 C-2.87625 8.72125 -2.7525 7.4425 -2.625 6.125 C-2.25 2.25 -2.25 2.25 0 0 Z " fill="#F6E0F5" transform="translate(19,5)"/>
<path d="M0 0 C0.66 0 1.32 0 2 0 C2.33 2.31 2.66 4.62 3 7 C5.97 7.495 5.97 7.495 9 8 C9 8.66 9 9.32 9 10 C7.02 10.66 5.04 11.32 3 12 C2.67 14.31 2.34 16.62 2 19 C1.34 18.67 0.68 18.34 0 18 C-0.40729228 15.67843403 -0.74438677 13.3431213 -1 11 C-3.97 10.505 -3.97 10.505 -7 10 C-7 9.34 -7 8.68 -7 8 C-5.02 7.67 -3.04 7.34 -1 7 C-0.67 4.69 -0.34 2.38 0 0 Z " fill="#CE4DC4" transform="translate(19,10)"/>
<path d="M0 0 C2.31 0.33 4.62 0.66 7 1 C7.66 3.31 8.32 5.62 9 8 C9.28875 7.195625 9.5775 6.39125 9.875 5.5625 C11 3 11 3 13 2 C12.93993922 3.45947705 12.8511311 4.91779272 12.75 6.375 C12.68039063 7.59316406 12.68039063 7.59316406 12.609375 8.8359375 C12 11 12 11 9.953125 12.2890625 C8.98632812 12.64097656 8.98632812 12.64097656 8 13 C5.70366176 9.55549263 5.45983515 7.06187717 5 3 C2.03 2.505 2.03 2.505 -1 2 C-0.67 1.34 -0.34 0.68 0 0 Z " fill="#FBF0F9" transform="translate(11,20)"/>
<path d="M0 0 C2.625 0.375 2.625 0.375 5 1 C5.625 3.375 5.625 3.375 6 6 C5.34 6.66 4.68 7.32 4 8 C1.375 7.625 1.375 7.625 -1 7 C-1.625 4.625 -1.625 4.625 -2 2 C-1.34 1.34 -0.68 0.68 0 0 Z " fill="#F7E0F4" transform="translate(8,25)"/>
<path d="M0 0 C0.33 0 0.66 0 1 0 C1.66 2.64 2.32 5.28 3 8 C4.65 8.33 6.3 8.66 8 9 C8 9.66 8 10.32 8 11 C2.6 11.36 2.6 11.36 0.125 9.875 C-1.49030526 7.18282457 -1.26199727 5.07846795 -1 2 C-0.67 1.34 -0.34 0.68 0 0 Z " fill="#FAF0FA" transform="translate(22,7)"/>
<path d="M0 0 C0.66 0 1.32 0 2 0 C2 0.99 2 1.98 2 3 C2.99 3 3.98 3 5 3 C5 3.66 5 4.32 5 5 C4.01 5 3.02 5 2 5 C2 5.99 2 6.98 2 8 C1.34 8 0.68 8 0 8 C0 7.01 0 6.02 0 5 C-0.99 5 -1.98 5 -3 5 C-3 4.34 -3 3.68 -3 3 C-2.01 3 -1.02 3 0 3 C0 2.01 0 1.02 0 0 Z " fill="#F9EAF8" transform="translate(29,5)"/>
<path d="M0 0 C2.0625 0.4375 2.0625 0.4375 4 1 C3.67 2.32 3.34 3.64 3 5 C1.35 5.33 -0.3 5.66 -2 6 C-1.125 1.125 -1.125 1.125 0 0 Z " fill="#E8ADE5" transform="translate(8,25)"/>
</svg>
